<svg width="414" height="414" viewBox="0 0 414 414" fill="none" xmlns="http://www.w3.org/2000/svg">
<g clip-path="url(#clip0_127_231)">
<path d="M-68.8803 497.847C-69.1167 498.084 -69.4211 498.336 -69.6429 498.622C-70.2778 497.894 -69.7758 502.479 -69.3361 504.018C-68.4843 506.999 -66.0998 508.645 -63.7619 510.749C-61.2557 513.004 -56.4136 514.671 -53.2094 515.657C-48.3895 517.14 -43.9582 518.963 -39.3614 520.986C-32.2034 524.135 -24.3913 525.042 -16.7139 526.244C-2.38669 528.488 12.1148 528.633 26.4777 530.732C60.624 535.722 94.2688 541.479 128.707 544.054C145.521 545.311 162.7 544.962 179.541 544.369C199.979 543.65 220.389 544.179 240.823 543.142C259.142 542.213 277.056 540.856 295.268 538.725C310.564 536.935 325.903 536.287 341.3 536.516C366.077 536.886 390.663 538.967 415.483 538.234C436.994 537.6 458.838 535.738 480.13 532.555C495.716 530.225 511.468 527.84 526.967 524.982C533.699 523.741 538.99 521.433 545.198 518.812C549.452 517.016 545.628 515.136 543.795 512.256C541.54 508.713 539.226 505.26 536.854 501.809C534.055 497.738 530.557 494.702 526.687 491.642C517.888 484.685 508.88 478.624 498.956 473.377C488.905 468.063 477.763 463.837 468.35 457.46C463.378 454.092 458.5 449.805 453.205 447.013C448.705 444.64 444.406 442.373 440.724 438.809C436.461 434.684 432.932 429.885 428.594 425.908C422.33 420.166 415.85 414.644 409.417 409.08C406.203 406.3 404.605 405.014 400.758 403.331C393.841 400.304 386.74 398.392 380.354 394.181C372.152 388.77 364.335 382.631 356.655 376.511C349.503 370.812 340.714 366.998 334.709 359.929C327.004 350.859 324.966 338.909 318.512 329.078L318.211 328.619C314.854 323.504 311.561 318.487 307.363 314.003C304.355 310.789 300.225 308.265 297.792 304.572C295.008 300.344 290.083 305.199 290.083 300.393C290.083 295.674 288.555 291.223 284.423 289.392C278.935 286.96 278.559 278.58 272.726 277.121C260.985 274.186 248.828 272.567 237.808 267.235C230.046 263.479 222.589 261.645 214.214 259.803C209.545 258.776 206.422 256.886 202.645 254.053C196.649 249.556 190.501 249.148 183.152 250.618C170.982 253.052 162.327 260.224 152.336 266.885C146.814 270.566 150.256 275.907 146.026 280.136C142.228 283.935 140.76 288.575 142.134 293.844C143.133 297.673 145.044 299.777 143.957 303.941C142.206 310.653 133.244 316.561 128.497 320.769C124.253 324.531 123.459 328.238 122.046 333.495C120.423 339.532 115.803 341.507 110.407 344.012C101.049 348.357 91.8837 354.409 83.342 360.139C77.499 364.059 67.9506 370.502 67.636 378.369C67.237 388.344 60.5336 389.155 52.9115 393.199C44.9861 397.404 37.3069 403.21 29.9134 408.309C23.4206 412.787 16.6846 416.107 9.54466 419.422C0.184929 423.768 -5.36343 431.907 -12.4368 439.125C-20.3355 447.185 -28.7305 454.402 -37.1177 461.878C-41.3555 465.655 -46.6238 469.681 -49.5984 474.639C-52.8128 479.996 -58.0788 484.705 -61.9388 489.644C-64.1885 492.522 -66.2902 495.257 -68.8803 497.847Z" fill="#1F0812"/>
<path d="M-25.6275 191.37C-29.7343 192.637 -31.2083 197.003 -31.2083 200.117C-33.2638 200.117 -35.2918 200.431 -37.2355 200.431C-40.6729 200.431 -42.5902 202.41 -44.7014 203.95C-46.0289 204.919 -49.2293 209.719 -45.6935 210.171C-39.1416 211.008 -31.8711 210.467 -25.2059 210.467H15.8438C29.6359 210.467 43.0515 209.479 56.7447 208.655C68.9831 207.918 81.2387 206.386 93.5282 206.093C101.254 205.909 110.329 206.871 117.712 204.961C120.699 204.188 123.626 203.176 125.029 201.04C126.592 198.661 121.725 198.693 119.349 198.235C116.271 197.642 113.119 197.817 110.072 197.05C107.108 196.304 104.072 195.754 101.118 194.942C98.5454 194.235 96.0975 194.099 93.3794 193.844C89.3748 193.469 86.505 190.996 83.7309 189.14C79.8207 186.524 76.6093 187.091 71.7756 186.317C68.7971 185.84 65.1406 184.293 62.5735 183.146C60.2545 182.109 58.4781 180.499 55.8518 179.8C53.4173 179.153 50.4125 179.363 47.8899 179.574C44.1929 179.883 40.8551 179.104 37.1996 179.104C32.629 179.104 28.5927 182.068 24.8971 183.634C18.8882 186.179 15.0419 185.277 8.99809 183.529C2.4943 181.648 -2.54604 187.389 -5.88398 190.307C-6.94952 191.239 -8.4754 193.376 -10.5718 193.147C-11.9349 192.998 -13.4061 192.425 -14.59 191.962C-18.0937 190.595 -21.7957 190.188 -25.6275 191.37Z" fill="#1F0812"/>
<path d="M352.55 208.798C350.251 209.318 349.426 211.109 349.426 212.387C348.276 212.387 347.141 212.515 346.053 212.515C344.129 212.515 343.056 213.327 341.874 213.959C341.131 214.356 339.34 216.326 341.319 216.511C344.986 216.854 349.055 216.633 352.786 216.633H375.762C383.482 216.633 390.991 216.227 398.655 215.889C405.505 215.587 412.365 214.958 419.244 214.838C423.568 214.763 428.648 215.158 432.78 214.374C434.452 214.057 436.09 213.641 436.875 212.765C437.75 211.789 435.026 211.802 433.696 211.615C431.973 211.371 430.209 211.443 428.504 211.128C426.845 210.822 425.145 210.597 423.492 210.263C422.052 209.973 420.682 209.918 419.16 209.813C416.919 209.659 415.313 208.645 413.76 207.883C411.571 206.81 409.774 207.042 407.068 206.725C405.401 206.529 403.355 205.895 401.918 205.424C400.62 204.999 399.625 204.338 398.156 204.052C396.793 203.786 395.111 203.872 393.699 203.959C391.63 204.085 389.762 203.766 387.716 203.766C385.157 203.766 382.898 204.982 380.83 205.624C377.466 206.668 375.313 206.299 371.931 205.581C368.29 204.809 365.469 207.165 363.601 208.362C363.004 208.744 362.15 209.621 360.977 209.527C360.214 209.466 359.391 209.231 358.728 209.041C356.767 208.48 354.695 208.313 352.55 208.798Z" fill="#1F0812"/>
<path d="M316.568 150.579C314.269 151.099 313.444 152.89 313.444 154.168C312.293 154.168 311.158 154.296 310.07 154.296C308.146 154.296 307.073 155.109 305.892 155.74C305.149 156.138 303.357 158.107 305.336 158.292C309.004 158.636 313.073 158.414 316.804 158.414H339.78C347.5 158.414 355.009 158.009 362.673 157.67C369.523 157.368 376.383 156.74 383.261 156.62C387.586 156.544 392.665 156.939 396.797 156.155C398.469 155.838 400.107 155.423 400.893 154.547C401.768 153.571 399.043 153.584 397.713 153.396C395.991 153.153 394.226 153.224 392.521 152.91C390.862 152.604 389.163 152.378 387.509 152.045C386.069 151.755 384.699 151.699 383.178 151.594C380.937 151.44 379.33 150.426 377.778 149.664C375.589 148.591 373.791 148.824 371.086 148.506C369.419 148.311 367.372 147.676 365.935 147.205C364.637 146.78 363.643 146.119 362.173 145.833C360.81 145.567 359.129 145.653 357.717 145.74C355.647 145.867 353.779 145.547 351.733 145.547C349.175 145.547 346.916 146.763 344.847 147.405C341.484 148.45 339.331 148.08 335.948 147.363C332.308 146.591 329.487 148.946 327.618 150.143C327.022 150.525 326.168 151.402 324.995 151.308C324.232 151.247 323.408 151.012 322.745 150.822C320.784 150.261 318.712 150.094 316.568 150.579Z" fill="#1F0812"/>
<path fill-rule="evenodd" clip-rule="evenodd" d="M332.225 251.907L350.323 228.017L368.422 251.907C368.422 251.907 366.2 253.08 362.786 254.239L374.455 266.024C374.455 266.024 371.221 267.158 366.347 268.233L380.488 279.658C380.488 279.658 376.166 280.873 369.719 281.98L386.52 293.293C386.52 293.293 373.972 296.235 358.769 297.136V304.031H341.877V297.136C326.675 296.235 314.126 293.293 314.126 293.293L330.927 281.98C324.48 280.873 320.159 279.658 320.159 279.658L334.299 268.233C329.426 267.158 326.192 266.024 326.192 266.024L337.86 254.239C334.446 253.08 332.225 251.907 332.225 251.907Z" fill="#1F0812"/>
<path fill-rule="evenodd" clip-rule="evenodd" d="M25.9003 259.356L50.5371 226.836L75.174 259.356C75.174 259.356 72.1495 260.953 67.5026 262.531L83.3862 278.573C83.3862 278.573 78.9838 280.116 72.3501 281.58L91.5985 297.133C91.5985 297.133 85.7162 298.786 76.9401 300.293L99.8108 315.693C99.8108 315.693 75.9952 321.277 50.5371 321.277C25.079 321.277 1.26343 315.693 1.26343 315.693L24.1341 300.293C15.3581 298.786 9.47571 297.133 9.47571 297.133L28.7242 281.58C22.0904 280.116 17.688 278.573 17.688 278.573L33.5716 262.531C28.9248 260.953 25.9003 259.356 25.9003 259.356Z" fill="#1F0812"/>
<path fill-rule="evenodd" clip-rule="evenodd" d="M116.709 314.129L128.364 298.744L140.019 314.129C140.019 314.129 138.589 314.884 136.39 315.63L143.904 323.22C143.904 323.22 141.822 323.95 138.683 324.642L147.789 332C147.789 332 145.007 332.782 140.855 333.495L151.674 340.78C151.674 340.78 140.408 343.422 128.364 343.422C116.321 343.422 105.054 340.78 105.054 340.78L115.874 333.495C111.722 332.782 108.939 332 108.939 332L118.045 324.642C114.907 323.95 112.824 323.22 112.824 323.22L120.338 315.63C118.14 314.884 116.709 314.129 116.709 314.129Z" fill="#1F0812"/>
<path fill-rule="evenodd" clip-rule="evenodd" d="M90.4741 291.68L104.309 273.418L118.143 291.68C118.143 291.68 116.445 292.576 113.835 293.462L122.755 302.471C122.755 302.471 120.282 303.337 116.557 304.16L127.366 312.893C127.366 312.893 124.063 313.821 119.135 314.668L131.978 323.315C131.978 323.315 122.386 325.564 110.765 326.253V331.524H97.8525V326.253C86.2316 325.564 76.6395 323.315 76.6395 323.315L89.4822 314.668C84.5542 313.821 81.251 312.893 81.251 312.893L92.0598 304.16C88.3347 303.337 85.8625 302.471 85.8625 302.471L94.7818 293.462C92.1724 292.576 90.4741 291.68 90.4741 291.68Z" fill="#1F0812"/>
<path fill-rule="evenodd" clip-rule="evenodd" d="M303.899 291.084L315.554 275.699L327.209 291.084C327.209 291.084 325.778 291.839 323.58 292.585L331.094 300.175C331.094 300.175 329.011 300.905 325.873 301.597L334.979 308.955C334.979 308.955 332.196 309.737 328.044 310.45L338.864 317.735C338.864 317.735 330.783 319.63 320.993 320.21V324.65H310.115V320.21C300.324 319.63 292.243 317.735 292.243 317.735L303.063 310.45C298.911 309.737 296.128 308.955 296.128 308.955L305.234 301.597C302.096 300.905 300.013 300.175 300.013 300.175L307.528 292.585C305.329 291.839 303.899 291.084 303.899 291.084Z" fill="#1F0812"/>
</g>
<defs>
<clipPath id="clip0_127_231">
<rect width="414" height="414" fill="white"/>
</clipPath>
</defs>
</svg>
