<svg width="1024" height="1024" viewBox="0 0 1024 1024" fill="none" xmlns="http://www.w3.org/2000/svg">
<g clip-path="url(#clip0_132_2096)">
<path d="M-170.371 1231.39C-170.955 1231.98 -171.708 1232.6 -172.257 1233.31C-173.827 1231.51 -172.586 1242.85 -171.498 1246.65C-169.391 1254.03 -163.493 1258.1 -157.71 1263.3C-151.512 1268.88 -139.535 1273 -131.61 1275.44C-119.688 1279.11 -108.727 1283.62 -97.3577 1288.62C-79.6528 1296.41 -60.3301 1298.65 -41.3406 1301.63C-5.90329 1307.18 29.9651 1307.54 65.4908 1312.73C149.949 1325.07 233.167 1339.31 318.348 1345.68C359.937 1348.79 402.426 1347.93 444.083 1346.46C494.634 1344.68 545.116 1345.99 595.659 1343.42C640.97 1341.13 685.278 1337.77 730.325 1332.5C768.158 1328.07 806.098 1326.47 844.181 1327.04C905.467 1327.95 966.277 1333.1 1027.67 1331.28C1080.87 1329.71 1134.9 1325.11 1187.57 1317.24C1226.12 1311.47 1265.08 1305.58 1303.42 1298.51C1320.07 1295.44 1333.15 1289.73 1348.51 1283.25C1359.03 1278.8 1349.57 1274.15 1345.04 1267.03C1339.46 1258.27 1333.74 1249.73 1327.87 1241.19C1320.95 1231.12 1312.3 1223.61 1302.72 1216.04C1280.96 1198.84 1258.68 1183.84 1234.13 1170.86C1209.27 1157.72 1181.71 1147.27 1158.43 1131.5C1146.13 1123.16 1134.07 1112.56 1120.97 1105.66C1109.84 1099.79 1099.21 1094.18 1090.1 1085.36C1079.56 1075.16 1070.83 1063.29 1060.1 1053.45C1044.6 1039.25 1028.58 1025.59 1012.67 1011.83C1004.71 1004.96 1000.76 1001.77 991.247 997.61C974.137 990.125 956.575 985.396 940.78 974.978C920.492 961.596 901.156 946.411 882.161 931.274C864.47 917.177 842.732 907.744 827.878 890.259C808.821 867.824 803.781 838.268 787.817 813.95L787.072 812.816C778.77 800.165 770.625 787.755 760.242 776.663C752.801 768.715 742.585 762.473 736.569 753.337C729.682 742.88 717.5 754.888 717.5 743C717.5 731.328 713.721 720.319 703.5 715.79C689.925 709.776 688.997 689.048 674.568 685.441C645.529 678.181 615.459 674.177 588.202 660.987C569.003 651.697 550.558 647.161 529.843 642.604C518.294 640.063 510.569 635.389 501.228 628.383C486.397 617.26 471.192 616.249 453.015 619.885C422.913 625.905 401.505 643.646 376.793 660.12C363.134 669.226 371.647 682.436 361.185 692.898C351.79 702.292 348.16 713.769 351.56 726.803C354.03 736.273 358.755 741.477 356.069 751.777C351.738 768.379 329.569 782.992 317.828 793.399C307.33 802.704 305.368 811.874 301.873 824.876C297.859 839.808 286.43 844.694 273.084 850.89C249.938 861.637 227.268 876.606 206.141 890.779C191.688 900.474 168.071 916.411 167.293 935.87C166.306 960.541 149.726 962.547 130.873 972.55C111.27 982.952 92.276 997.312 73.9888 1009.92C57.9291 1021 41.2683 1029.21 23.6081 1037.41C0.457413 1048.16 -13.266 1068.29 -30.7615 1086.14C-50.2984 1106.08 -71.063 1123.93 -91.808 1142.42C-102.29 1151.76 -115.321 1161.72 -122.678 1173.99C-130.629 1187.24 -143.654 1198.88 -153.201 1211.1C-158.766 1218.22 -163.964 1224.98 -170.371 1231.39Z" fill="#061C31"/>
<path d="M-63.3879 473.34C-73.5458 476.473 -77.1915 487.274 -77.1915 494.975C-82.2758 494.975 -87.2917 495.751 -92.0995 495.751C-100.602 495.751 -105.344 500.647 -110.566 504.457C-113.849 506.852 -121.765 518.725 -113.02 519.842C-96.8139 521.912 -78.8309 520.575 -62.3449 520.575H39.1886C73.3023 520.575 106.485 518.132 140.354 516.093C170.625 514.27 200.938 510.482 231.335 509.758C250.444 509.303 272.892 511.682 291.151 506.956C298.541 505.044 305.78 502.541 309.249 497.259C313.116 491.375 301.078 491.453 295.2 490.321C287.588 488.855 279.791 489.286 272.256 487.39C264.924 485.545 257.414 484.183 250.108 482.175C243.745 480.426 237.69 480.09 230.967 479.46C221.062 478.533 213.964 472.415 207.102 467.824C197.431 461.353 189.488 462.756 177.532 460.842C170.165 459.663 161.121 455.837 154.771 452.999C149.035 450.434 144.641 446.451 138.145 444.724C132.124 443.123 124.692 443.642 118.452 444.164C109.308 444.928 101.052 443 92.0106 443C80.7054 443 70.7221 450.334 61.5812 454.205C46.7186 460.5 37.2051 458.271 22.2561 453.947C6.16946 449.293 -6.29746 463.494 -14.5536 470.712C-17.1892 473.016 -20.9633 478.303 -26.1487 477.736C-29.5202 477.368 -33.1592 475.949 -36.0873 474.806C-44.7535 471.424 -53.9102 470.417 -63.3879 473.34Z" fill="#061C31"/>
<path d="M872.008 516.447C866.322 517.733 864.282 522.164 864.282 525.323C861.436 525.323 858.628 525.641 855.937 525.641C851.179 525.641 848.524 527.65 845.601 529.213C843.764 530.196 839.333 535.067 844.228 535.525C853.299 536.374 863.364 535.826 872.591 535.826H929.422C948.516 535.826 967.089 534.824 986.046 533.987C1002.99 533.239 1019.96 531.685 1036.97 531.388C1047.67 531.201 1060.23 532.177 1070.45 530.238C1074.59 529.454 1078.64 528.427 1080.58 526.26C1082.74 523.846 1076.01 523.878 1072.72 523.414C1068.46 522.812 1064.09 522.989 1059.87 522.211C1055.77 521.454 1051.57 520.896 1047.48 520.072C1043.92 519.354 1040.53 519.216 1036.76 518.958C1031.22 518.577 1027.25 516.068 1023.41 514.184C1017.99 511.53 1013.55 512.105 1006.86 511.32C1002.73 510.836 997.669 509.266 994.115 508.102C990.905 507.05 988.446 505.416 984.81 504.707C981.439 504.051 977.279 504.263 973.787 504.477C968.669 504.791 964.048 504 958.987 504C952.659 504 947.072 507.009 941.955 508.597C933.636 511.18 928.312 510.265 919.944 508.491C910.94 506.582 903.962 512.408 899.341 515.369C897.866 516.314 895.754 518.483 892.851 518.251C890.964 518.1 888.927 517.517 887.288 517.049C882.438 515.661 877.313 515.248 872.008 516.447Z" fill="#061C31"/>
<path d="M783.008 372.447C777.322 373.733 775.282 378.164 775.282 381.323C772.436 381.323 769.628 381.641 766.937 381.641C762.179 381.641 759.524 383.65 756.601 385.213C754.764 386.196 750.333 391.067 755.228 391.525C764.299 392.374 774.364 391.826 783.591 391.826H840.422C859.516 391.826 878.089 390.824 897.046 389.987C913.989 389.239 930.956 387.685 947.97 387.388C958.666 387.201 971.23 388.177 981.45 386.238C985.586 385.454 989.638 384.427 991.58 382.26C993.744 379.846 987.006 379.878 983.716 379.414C979.456 378.812 975.091 378.989 970.874 378.211C966.77 377.454 962.566 376.896 958.478 376.072C954.916 375.354 951.527 375.216 947.764 374.958C942.22 374.577 938.247 372.068 934.406 370.184C928.993 367.53 924.547 368.105 917.855 367.32C913.732 366.836 908.669 365.266 905.115 364.102C901.905 363.05 899.446 361.416 895.81 360.707C892.439 360.051 888.279 360.263 884.787 360.477C879.669 360.791 875.048 360 869.987 360C863.659 360 858.072 363.009 852.955 364.597C844.636 367.18 839.312 366.265 830.944 364.491C821.94 362.582 814.962 368.408 810.341 371.369C808.866 372.314 806.754 374.483 803.851 374.251C801.964 374.1 799.927 373.517 798.288 373.049C793.438 371.661 788.313 371.248 783.008 372.447Z" fill="#061C31"/>
<path fill-rule="evenodd" clip-rule="evenodd" d="M821.734 623.075L866.5 563.984L911.266 623.075C911.266 623.075 905.77 625.975 897.327 628.843L926.188 657.992C926.188 657.992 918.188 660.796 906.134 663.456L941.109 691.716C941.109 691.716 930.421 694.719 914.475 697.458L956.031 725.439C956.031 725.439 924.993 732.717 887.391 734.945V752H845.609V734.945C808.007 732.717 776.969 725.439 776.969 725.439L818.525 697.458C802.579 694.719 791.891 691.716 791.891 691.716L826.866 663.456C814.812 660.796 806.812 657.992 806.812 657.992L835.673 628.843C827.23 625.975 821.734 623.075 821.734 623.075Z" fill="#061C31"/>
<path fill-rule="evenodd" clip-rule="evenodd" d="M64.0625 641.5L125 561.062L185.938 641.5C185.938 641.5 178.457 645.448 166.963 649.351L206.25 689.031C206.25 689.031 195.361 692.848 178.953 696.469L226.562 734.938C226.562 734.938 212.013 739.026 190.306 742.754L246.875 780.844C246.875 780.844 187.969 794.656 125 794.656C62.0312 794.656 3.125 780.844 3.125 780.844L59.6939 742.754C37.9871 739.026 23.4375 734.938 23.4375 734.938L71.0472 696.469C54.639 692.848 43.75 689.031 43.75 689.031L83.0371 649.351C71.5434 645.448 64.0625 641.5 64.0625 641.5Z" fill="#061C31"/>
<path fill-rule="evenodd" clip-rule="evenodd" d="M288.672 776.975L317.5 738.922L346.328 776.975C346.328 776.975 342.789 778.843 337.352 780.689L355.938 799.461C355.938 799.461 350.786 801.267 343.024 802.979L365.547 821.178C365.547 821.178 358.664 823.112 348.395 824.876L375.156 842.895C375.156 842.895 347.289 849.43 317.5 849.43C287.711 849.43 259.844 842.895 259.844 842.895L286.605 824.876C276.336 823.112 269.453 821.178 269.453 821.178L291.976 802.979C284.214 801.267 279.062 799.461 279.062 799.461L297.648 780.689C292.211 778.843 288.672 776.975 288.672 776.975Z" fill="#061C31"/>
<path fill-rule="evenodd" clip-rule="evenodd" d="M223.781 721.45L258 676.281L292.219 721.45C292.219 721.45 288.018 723.667 281.564 725.859L303.625 748.141C303.625 748.141 297.51 750.284 288.297 752.317L315.031 773.919C315.031 773.919 306.861 776.215 294.672 778.308L326.438 799.697C326.438 799.697 302.712 805.26 273.969 806.963V820H242.031V806.963C213.288 805.26 189.562 799.697 189.562 799.697L221.328 778.308C209.139 776.215 200.969 773.919 200.969 773.919L227.704 752.317C218.49 750.284 212.375 748.141 212.375 748.141L234.436 725.859C227.982 723.667 223.781 721.45 223.781 721.45Z" fill="#061C31"/>
<path fill-rule="evenodd" clip-rule="evenodd" d="M751.672 719.975L780.5 681.922L809.328 719.975C809.328 719.975 805.789 721.843 800.352 723.689L818.938 742.461C818.938 742.461 813.786 744.267 806.024 745.979L828.547 764.178C828.547 764.178 821.664 766.112 811.395 767.876L838.156 785.895C838.156 785.895 818.168 790.582 793.953 792.017V803H767.047V792.017C742.832 790.582 722.844 785.895 722.844 785.895L749.605 767.876C739.336 766.112 732.453 764.178 732.453 764.178L754.976 745.979C747.214 744.267 742.062 742.461 742.062 742.461L760.648 723.689C755.211 721.843 751.672 719.975 751.672 719.975Z" fill="#061C31"/>
</g>
<defs>
<clipPath id="clip0_132_2096">
<rect width="1024" height="1024" fill="white"/>
</clipPath>
</defs>
</svg>
